name rise42.5664peak47.7979fall81.9185.mot
datacolumns 19
datarows 18
range 15.24660500000000 15.27494100000000
endheader
time	ground_force1_vx	ground_force1_vy	ground_force1_vz	ground_force1_px	ground_force1_py	ground_force1_pz	ground_force2_vx	ground_force2_vy	ground_force2_vz	ground_force2_px	ground_force2_py	ground_force2_pz	ground_torque1_x	ground_torque1_y	ground_torque1_z	ground_torque2_x	ground_torque2_y	ground_torque2_z	
15.24660500000000	5.19074300000000	713.49586399999998	43.45871100000000	0.18463300000000	0.00000000000000	0.11952600000000	0.00000000000000	0.00000000000000	0.00000000000000	0.00000000000000	0.00000000000000	0.00000000000000	0.00000000000000	14.41152200000000	0.00000000000000	0.00000000000000	0.00000000000000	0.00000000000000	
15.24827400000000	4.94510000000000	714.16035999999997	43.46038300000000	0.18378900000000	0.00000000000000	0.11948500000000	0.00000000000000	0.00000000000000	0.00000000000000	0.00000000000000	0.00000000000000	0.00000000000000	0.00000000000000	14.42788100000000	0.00000000000000	0.00000000000000	0.00000000000000	0.00000000000000	
15.24993900000000	4.69090100000000	714.85609199999999	43.46626800000000	0.18293000000000	0.00000000000000	0.11944400000000	0.00000000000000	0.00000000000000	0.00000000000000	0.00000000000000	0.00000000000000	0.00000000000000	0.00000000000000	14.44791500000000	0.00000000000000	0.00000000000000	0.00000000000000	0.00000000000000	
15.25161000000000	4.42791100000000	715.58171400000003	43.47610400000000	0.18205600000000	0.00000000000000	0.11940300000000	0.00000000000000	0.00000000000000	0.00000000000000	0.00000000000000	0.00000000000000	0.00000000000000	0.00000000000000	14.47157900000000	0.00000000000000	0.00000000000000	0.00000000000000	0.00000000000000	
15.25327700000000	4.15593200000000	716.33590400000003	43.48963500000000	0.18116800000000	0.00000000000000	0.11936300000000	0.00000000000000	0.00000000000000	0.00000000000000	0.00000000000000	0.00000000000000	0.00000000000000	0.00000000000000	14.49882800000000	0.00000000000000	0.00000000000000	0.00000000000000	0.00000000000000	
15.25493800000000	3.87479500000000	717.11737600000004	43.50661500000000	0.18026700000000	0.00000000000000	0.11932400000000	0.00000000000000	0.00000000000000	0.00000000000000	0.00000000000000	0.00000000000000	0.00000000000000	0.00000000000000	14.52961700000000	0.00000000000000	0.00000000000000	0.00000000000000	0.00000000000000	
15.25660300000000	3.58436300000000	717.92487500000004	43.52680700000000	0.17935200000000	0.00000000000000	0.11928400000000	0.00000000000000	0.00000000000000	0.00000000000000	0.00000000000000	0.00000000000000	0.00000000000000	0.00000000000000	14.56389800000000	0.00000000000000	0.00000000000000	0.00000000000000	0.00000000000000	
15.25827800000000	3.28453500000000	718.75718400000005	43.54998200000000	0.17842600000000	0.00000000000000	0.11924500000000	0.00000000000000	0.00000000000000	0.00000000000000	0.00000000000000	0.00000000000000	0.00000000000000	0.00000000000000	14.60162400000000	0.00000000000000	0.00000000000000	0.00000000000000	0.00000000000000	
15.25994200000000	2.97523900000000	719.61312499999997	43.57592200000000	0.17748900000000	0.00000000000000	0.11920600000000	0.00000000000000	0.00000000000000	0.00000000000000	0.00000000000000	0.00000000000000	0.00000000000000	0.00000000000000	14.64274200000000	0.00000000000000	0.00000000000000	0.00000000000000	0.00000000000000	
15.26161100000000	2.65643600000000	720.49156300000004	43.60442100000000	0.17654300000000	0.00000000000000	0.11916700000000	0.00000000000000	0.00000000000000	0.00000000000000	0.00000000000000	0.00000000000000	0.00000000000000	0.00000000000000	14.68720200000000	0.00000000000000	0.00000000000000	0.00000000000000	0.00000000000000	
15.26327600000000	2.32811900000000	721.39140399999997	43.63528300000000	0.17558700000000	0.00000000000000	0.11912800000000	0.00000000000000	0.00000000000000	0.00000000000000	0.00000000000000	0.00000000000000	0.00000000000000	0.00000000000000	14.73494800000000	0.00000000000000	0.00000000000000	0.00000000000000	0.00000000000000	
15.26494100000000	1.99031200000000	722.31160100000000	43.66832300000000	0.17462400000000	0.00000000000000	0.11909000000000	0.00000000000000	0.00000000000000	0.00000000000000	0.00000000000000	0.00000000000000	0.00000000000000	0.00000000000000	14.78592400000000	0.00000000000000	0.00000000000000	0.00000000000000	0.00000000000000	
15.26660600000000	1.64307200000000	723.25115300000004	43.70337100000000	0.17365500000000	0.00000000000000	0.11905100000000	0.00000000000000	0.00000000000000	0.00000000000000	0.00000000000000	0.00000000000000	0.00000000000000	0.00000000000000	14.84007000000000	0.00000000000000	0.00000000000000	0.00000000000000	0.00000000000000	
15.26827800000000	1.28648200000000	724.20910500000002	43.74026800000000	0.17268000000000	0.00000000000000	0.11901200000000	0.00000000000000	0.00000000000000	0.00000000000000	0.00000000000000	0.00000000000000	0.00000000000000	0.00000000000000	14.89732500000000	0.00000000000000	0.00000000000000	0.00000000000000	0.00000000000000	
15.26993900000000	0.92065700000000	725.18454799999995	43.77886800000000	0.17170100000000	0.00000000000000	0.11897300000000	0.00000000000000	0.00000000000000	0.00000000000000	0.00000000000000	0.00000000000000	0.00000000000000	0.00000000000000	14.95762400000000	0.00000000000000	0.00000000000000	0.00000000000000	0.00000000000000	
15.27160700000000	0.54574100000000	726.17662199999995	43.81903900000000	0.17072000000000	0.00000000000000	0.11893400000000	0.00000000000000	0.00000000000000	0.00000000000000	0.00000000000000	0.00000000000000	0.00000000000000	0.00000000000000	15.02089800000000	0.00000000000000	0.00000000000000	0.00000000000000	0.00000000000000	
15.27327300000000	0.16190400000000	727.18451100000004	43.86066300000000	0.16973600000000	0.00000000000000	0.11889500000000	0.00000000000000	0.00000000000000	0.00000000000000	0.00000000000000	0.00000000000000	0.00000000000000	0.00000000000000	15.08707600000000	0.00000000000000	0.00000000000000	0.00000000000000	0.00000000000000	
15.27494100000000	-0.23065700000000	728.20744900000000	43.90363500000000	0.16875300000000	0.00000000000000	0.11885500000000	0.00000000000000	0.00000000000000	0.00000000000000	0.00000000000000	0.00000000000000	0.00000000000000	0.00000000000000	15.15608300000000	0.00000000000000	0.00000000000000	0.00000000000000	0.00000000000000	
